<svg version="1.1" xmlns="http://www.w3.org/2000/svg" xmlns:xlink="http://www.w3.org/1999/xlink" x="0px" y="0px" viewBox="0 0 1920 322.7" style="enable-background:new 0 0 1920 322.7;" xml:space="preserve">
<g>
		<path d="M0,0c640,0,1280,0,1920,0v322.7c-640,0-1280,0-1920,0V0z M123.6,52.2c-15.4,4.2-30,11.3-42.3,21.5
			C64.8,87,52.6,105.2,46.2,125.3c-7.5,24-7,50.3,0.5,74.2c7.5,22.6,22.5,42.6,42.1,56.1c14.5,9.4,31.1,15.7,48.2,18.2
			c5.4,0.2,10.6,1.3,16,1.2c4.4,0.1,8.6-1.1,13-1c4.8,0,9.5-1.3,14.2-2c12.2-2.1,23.5-7.3,34.3-13.2c18.1-10.5,32.4-27.3,40.6-46.5
			c0.5-1.2,0.7-2.4,1-3.7c-14.2-0.1-28.5-0.3-42.7,0.1c-2.2,2.8-3.5,6.3-5.8,9.1c-9.6,13.5-25.1,22.7-41.6,24.4
			c-11,2-22.2,0.6-32.9-1.9c-6.4-2.3-13.1-4.3-18.9-8c-20.9-12.4-33.5-36-35-60c-1.2-6.9-0.8-14.1-0.3-21.1
			c1.8-18.4,8.7-36.7,21.7-50.2c3.5-2.9,6.8-6,10.5-8.7c10.5-6.9,22.7-10.7,35.2-11.8c5.6-1.2,11.4-0.6,17-0.3c4.7,1,9.4,1.5,14,3
			c8.8,3.5,17.8,7.6,24.3,14.7c4.8,4.8,8.1,10.7,11.6,16.5c14.5,0.2,29,0.3,43.4,0c-6.4-16.5-17-31.6-31-42.6
			c-8.3-6.6-17.9-11.3-27.5-15.5C174.3,47.5,148.1,46.6,123.6,52.2z M1516.7,64c-9.6,7.1-16.3,17.6-20,28.8
			c-2.8,8.2-2.6,17-2.2,25.6c0.6,11.2,5,22.5,13.4,30.2c6.5,7.6,15.3,12.7,24.6,16.3c11.5,5.1,23.7,7.9,35.8,11.1
			c8.3,2.5,17,4.2,24.8,8.4c8.7,4.1,16.7,11.9,17.8,22c1.3,5.3,0.3,10.9-1.4,16c-3.4,9.7-12.3,16.9-22.3,19.3
			c-9.7,3-20.4,3.1-30-0.1c-8.6-1.9-15.4-8.2-19.6-15.7c-3-4.5-3.5-10-5.2-15c-12.7,0-25.3-0.1-37.9,0.1c-0.5,7.6,0.8,15.2,3.7,22.3
			c6.5,15.5,20.2,26.9,35.3,33.6c18.6,7.8,39.7,10.1,59.4,5.5c9.2-1.6,18.2-4.9,25.8-10.4c16.2-10,28.2-27.4,29.9-46.6
			c1.2-12.9-0.5-26.6-8-37.4c-5.1-7.2-11.6-13.5-19.3-17.7c-6.9-4-14.6-6.2-21.9-9.1c-11.5-3.9-23.2-6.9-34.8-10.3
			c-8.7-2.9-17.5-6.3-24.3-12.5c-12.5-11.1-9.8-34,4.4-42.6c6.7-4.2,14.6-6.5,22.5-6.3c10-0.5,20.3,2.5,27.9,9
			c6.5,4.6,10.3,12.2,10.9,20c13.2,0.3,26.5,0.4,39.6,0c-0.8-12-4.9-24-12.2-33.6c-10.7-13.9-27.4-21.9-44.4-24.7
			c-9.5-2-19.3-1.5-29-1.3C1544.7,50.8,1528.9,54.2,1516.7,64z M363.5,52.7c-26.1,73-52.2,146-78.4,219c4.5,1.3,9.2,0.7,13.8,0.8
			c7.9-0.3,15.9,0.6,23.8-0.6c5.5-14.9,10.6-30,16.1-44.9c5.7-0.4,11.4-0.1,17.1-0.2c25.1,0.1,50.2-0.2,75.2,0.1
			c5.4,14.9,10.3,30,15.5,44.9c8,1.3,16.2,0.4,24.2,0.7c4.6-0.3,9.4,0.7,13.9-0.8c-26-72.9-52.1-145.6-78.1-218.5
			c-0.3-1.2-1.4-2.5-2.7-2.2c-12.7,0-25.4,0-38.1,0C364.8,51,364,51.6,363.5,52.7z M519.7,51c-0.2,22.1,0,44.2-0.1,66.3
			c0.1,51.4-0.2,102.9,0.1,154.3c36.8,0.1,73.6,0.1,110.4,0c0.2-9.7,0.2-19.4,0-29c-24.8-0.1-49.6,0-74.4-0.1
			c-0.5-6.1-0.1-12.2-0.2-18.3c-0.1-57.8,0.2-115.6-0.2-173.3C543.4,51,531.6,50.9,519.7,51z M642.3,52.1
			c22.5,59.8,45.2,119.5,67.7,179.3c5.3,13.6,10.1,27.5,15.7,41c13.9-0.3,27.7,0,41.6-0.1c13-34,25.6-68.1,38.5-102.2
			c14.7-39.4,29.6-78.6,44.2-118c-5.3-0.8-10.7-0.1-16-0.4c-7.4,0.3-14.9-0.5-22.2,0.4c-17.1,48.5-34.6,96.8-51.8,145.2
			c-4.7,12.4-8.6,25-13.6,37.2c-8.5-22.8-16.4-45.8-24.7-68.7c-13.5-37.9-27.1-75.7-40.6-113.6c-1.1-1-2.8-0.5-4.1-0.7
			c-11,0.1-22,0-32.9,0C643.6,51.8,642.8,52,642.3,52.1z M880.9,51.6c0,73.5,0,147,0,220.5c12,0,24,0,36,0c0-73.5,0-147,0-220.5
			C905,51.7,893,51.6,880.9,51.6z M964.4,131.4c-0.1,46.7,0.2,93.3-0.1,140c12,0.2,24,0.1,36,0c-0.2-35,0-70.1-0.1-105.1
			c0.2-19.4-0.3-38.8,0.3-58.2c2.3,2.4,4,5.3,5.8,8.1c34.1,51.5,68.2,103.1,102.3,154.6c1.1,1.7,3.5,1.3,5.3,1.6
			c7.4,0.1,14.7,0,22.1,0c3,0,6.2,0.3,9.1-0.8c-0.5-17.8-0.1-35.6-0.2-53.3c0-33,0-66,0-99c-0.2-22.8,0.4-45.6-0.3-68.3
			c-11.7,0-23.4,0-35.2,0c-0.7,13.4-0.1,26.9-0.3,40.3c0,36.4,0,72.7,0,109.1c-0.1,4.9,0.3,9.9-0.6,14.8
			c-22.4-34.4-45.2-68.4-67.7-102.7c-13.7-20.4-26.9-41.1-40.8-61.4c-11.8-0.1-23.6,0-35.4,0C964.1,77.8,964.6,104.6,964.4,131.4z
			 M1276.1,51c-0.7,3.4-0.3,6.9-0.4,10.3c0,70,0.1,140.1,0,210.1c12,0.1,24,0.2,36,0c-0.2-31.9-0.1-63.7-0.1-95.6
			c3.4-0.5,6.9-0.2,10.4-0.3c31.1,0,62.3,0.1,93.4,0c0.3,32.1,0,64.2,0.1,96.3c5.4,1.3,11,0.5,16.6,0.7c6.5-0.2,13.1,0.6,19.5-0.7
			c0.3-23.2,0-46.3,0.1-69.5c-0.1-50.2,0.2-100.4-0.1-150.5c-12-0.2-24-0.2-36,0c-0.1,31.3,0.2,62.5-0.1,93.8
			c-33.1,0.4-66.3,0-99.4,0.2c-1.4-0.2-3.8,0.6-4.3-1.2c-0.3-31.2,0.2-62.4-0.3-93.5C1299.6,51,1287.8,51.1,1276.1,51z M1689.7,51.9
			c0,46.9-0.1,93.8,0,140.7c0.9,3.8,0.3,7.8,0.8,11.7c1.2,9.6,3.5,19.2,7.9,27.8c3.3,6.9,8.4,12.8,13.4,18.4
			c5.8,6.4,13.5,10.8,21,14.9c10.6,4.3,21.6,8,33.1,8.4c4.9,0.1,9.7,1.1,14.6,0.3c17.1-0.3,34.4-5.1,48.6-14.7
			c7.6-4.5,13.3-11.4,18.7-18.3c5.9-8,10-17.2,12.2-26.8c3.2-12.7,2.3-25.9,2.4-38.9c0-41,0-82.1,0-123.1l-0.4-0.7
			c-11.8-0.2-23.7-0.4-35.5,0.1c0.1,47.5,0.1,95,0,142.5c-0.6,10-2.2,20.4-7.8,28.9c-4.5,7.2-11.8,12.1-19.5,15.3
			c-9,3.2-18.7,4.5-28.2,3.6c-11.6-0.6-23.4-4.6-31.6-13c-7.3-6.9-10.6-16.9-11.8-26.7c-0.3-6.4-1.2-12.7-0.9-19.1
			c0-43.9,0-87.8,0-131.7c-7.9-0.4-15.8-0.1-23.7-0.2C1698.6,51.6,1694.1,51.2,1689.7,51.9zM379.5,110.4c2-5.1,3.3-10.5,5.8-15.3c10.7,30.5,21.4,61.1,32.1,91.7c1.2,3.5,2.8,7,3.3,10.8c-23.3,0.2-46.6,0.1-70,0.1c-0.3-0.2-1-0.5-1.3-0.7C359.2,168,369.5,139.3,379.5,110.4z"/>
</g>
</svg>